<svg width="21" height="20" viewBox="0 0 21 20" fill="none" xmlns="http://www.w3.org/2000/svg">
<g clip-path="url(#clip0_427_177)">
<path d="M10.4724 0.625183C10.2426 0.625239 10.0222 0.716565 9.85964 0.879085C9.69712 1.0416 9.60579 1.26202 9.60574 1.49185V11.379L6.29136 8.06456C6.21087 7.98408 6.11532 7.92025 6.01016 7.87671C5.90501 7.83315 5.7923 7.81074 5.67847 7.81075C5.44861 7.81077 5.22816 7.9021 5.06563 8.06466C4.90311 8.22722 4.81181 8.44768 4.81183 8.67755C4.81185 8.90742 4.90318 9.12786 5.06574 9.29039L9.85948 14.0835C10.0221 14.246 10.2425 14.3373 10.4724 14.3373C10.7023 14.3373 10.9227 14.246 11.0853 14.0835L15.8791 9.28956C16.0417 9.12703 16.133 8.90658 16.133 8.67672C16.133 8.44685 16.0417 8.22638 15.8792 8.06383C15.7167 7.90127 15.4962 7.80994 15.2663 7.80992C15.0364 7.80991 14.816 7.90119 14.6534 8.06373L11.3391 11.379V1.49185C11.339 1.26202 11.2477 1.0416 11.0852 0.879085C10.9227 0.716565 10.7022 0.625239 10.4724 0.625183Z" fill="#0077FF"/>
<path d="M1.96322 12.0847C1.73337 12.0847 1.51293 12.176 1.3504 12.3384C1.18787 12.501 1.09656 12.7214 1.09656 12.9513V15.8071C1.09761 16.7531 1.47387 17.6601 2.14279 18.329C2.81172 18.998 3.71868 19.3742 4.66468 19.3752H16.2784C17.2244 19.3742 18.1314 18.998 18.8003 18.329C19.4692 17.6601 19.8456 16.7531 19.8466 15.8071V12.9513C19.8466 12.8374 19.8241 12.7248 19.7806 12.6197C19.737 12.5144 19.6732 12.419 19.5927 12.3384C19.5122 12.258 19.4167 12.1942 19.3116 12.1507C19.2064 12.1071 19.0937 12.0847 18.9799 12.0847C18.8661 12.0847 18.7533 12.1071 18.6482 12.1507C18.5431 12.1942 18.4476 12.258 18.3671 12.3384C18.2866 12.419 18.2228 12.5144 18.1792 12.6197C18.1357 12.7248 18.1132 12.8374 18.1132 12.9513V15.8071C18.1127 16.2935 17.9192 16.76 17.5752 17.1039C17.2312 17.4479 16.7649 17.6413 16.2784 17.6419H4.66468C4.17824 17.6413 3.71187 17.4479 3.3679 17.1039C3.02392 16.76 2.83045 16.2935 2.82989 15.8071V12.9513C2.82991 12.8374 2.80752 12.7248 2.76398 12.6197C2.72044 12.5144 2.65659 12.4189 2.57611 12.3384C2.49562 12.2579 2.40008 12.1941 2.29491 12.1505C2.18976 12.107 2.07705 12.0847 1.96322 12.0847Z" fill="#0077FF"/>
</g>
<defs>
<clipPath id="clip0_427_177">
<rect width="20" height="20" fill="white" transform="translate(0.471558 0.000183105)"/>
</clipPath>
</defs>
</svg>
